<svg xmlns="http://www.w3.org/2000/svg" viewBox="0 0 512 512" width="512" height="512" role="img" aria-label="Avatar masculino">
  <defs>
    <clipPath id="cm"><circle cx="256" cy="256" r="240"/></clipPath>
  </defs>

  <!-- Fondo -->
  <circle cx="256" cy="256" r="240" fill="#EAEEF4"/>

  <g clip-path="url(#cm)">
    <!-- Sombra lateral derecha -->
    <circle cx="300" cy="262" r="240" fill="#D6E0E9"/>
    <circle cx="244" cy="250" r="240" fill="#EAEEF4"/>

    <!-- Remera (cuello en V) -->
    <path d="M116 474 C124 404 162 370 214 358 L256 412 L298 358 C350 370 388 404 396 474 Z" fill="#2E3D80"/>
    <path d="M298 358 C350 370 388 404 396 474 L344 474 C344 420 326 380 286 360 Z" fill="#283571"/>

    <!-- Cuello -->
    <path d="M226 322 h60 v44 l-30 26 -30 -26 z" fill="#ED9F87"/>

    <!-- Orejas -->
    <circle cx="180" cy="248" r="19" fill="#F4B49E"/>
    <circle cx="332" cy="248" r="19" fill="#F4B49E"/>

    <!-- Cara -->
    <ellipse cx="256" cy="244" rx="78" ry="94" fill="#F4B49E"/>

    <!-- Pelo corto -->
    <path d="M182 196 C176 132 212 110 256 110 C300 110 340 130 338 184
             C338 200 330 212 318 214 C322 196 318 182 306 178
             C300 196 286 200 256 196 C212 190 196 200 190 220
             C184 214 182 206 182 196 Z" fill="#3C2A2E"/>
  </g>

  <!-- Borde -->
  <circle cx="256" cy="256" r="240" fill="none" stroke="#0B0B0B" stroke-width="15"/>
</svg>
